<svg width="32" height="32" viewBox="0 0 32 32" fill="none" xmlns="http://www.w3.org/2000/svg">
<path fill-rule="evenodd" clip-rule="evenodd" d="M5.92748 5.33302C5.95162 5.33302 5.97581 5.33302 6.00001 5.33302H9.20001C12.5517 5.33302 15.3333 7.98415 15.3333 11.333C15.3333 13.2314 14.4395 14.9055 13.0546 15.9997C14.4395 17.0938 15.3333 18.7679 15.3333 20.6663C15.3333 24.0153 12.5517 26.6663 9.20001 26.6663H6.00002C5.97581 26.6663 5.95162 26.6663 5.92748 26.6663C5.36205 26.6665 4.81254 26.6666 4.35933 26.6057C3.84838 26.537 3.26536 26.3695 2.78106 25.8853C2.29678 25.401 2.12941 24.8179 2.06072 24.307C1.99978 23.8538 1.99989 23.3043 2.00001 22.7389C2.00001 22.7147 2.00001 22.6906 2.00001 22.6663V9.33302C2.00001 9.30882 2.00001 9.28463 2.00001 9.26049C1.99989 8.69506 1.99978 8.14555 2.06072 7.69232C2.12941 7.18139 2.29678 6.59837 2.78106 6.11407C3.26536 5.62979 3.84838 5.46242 4.35932 5.39372C4.81254 5.33279 5.36205 5.3329 5.92748 5.33302ZM4.66668 17.333V22.6663C4.66668 23.3326 4.66952 23.6981 4.70361 23.9517C4.70405 23.955 4.70449 23.9582 4.70494 23.9614C4.7081 23.9619 4.71134 23.9623 4.71465 23.9627C4.96824 23.9969 5.33378 23.9997 6.00002 23.9997H9.20001C11.1503 23.9997 12.6667 22.4722 12.6667 20.6663C12.6667 18.8606 11.1503 17.333 9.20001 17.333H4.66668ZM9.20001 14.6663H4.66668V9.33302C4.66668 8.66679 4.66952 8.30125 4.70361 8.04766C4.70405 8.04435 4.7045 8.04111 4.70494 8.03795C4.7081 8.0375 4.71134 8.03706 4.71465 8.03662C4.96824 8.00253 5.33378 7.99969 6.00001 7.99969H9.20001C11.1503 7.99969 12.6667 9.52723 12.6667 11.333C12.6667 13.1388 11.1503 14.6663 9.20001 14.6663Z" fill="#053EFF"/>
<path fill-rule="evenodd" clip-rule="evenodd" d="M19.3337 9.33333C19.3337 8.59696 19.9306 8 20.667 8H26.0003C26.7367 8 27.3337 8.59696 27.3337 9.33333C27.3337 10.0697 26.7367 10.6667 26.0003 10.6667H20.667C19.9306 10.6667 19.3337 10.0697 19.3337 9.33333ZM16.667 18.6667C16.667 15.2447 19.6161 12 23.3337 12C27.0513 12 30.0003 15.2447 30.0003 18.6667C30.0003 19.4031 29.4034 20 28.667 20H19.3337C19.3337 22.2092 21.1245 24 23.3337 24C24.8126 24 26.1057 23.1981 26.7994 21.9991C27.1681 21.3616 27.9837 21.1439 28.6211 21.5125C29.2586 21.8812 29.4763 22.6969 29.1077 23.3343C27.957 25.3235 25.803 26.6667 23.3337 26.6667C19.6518 26.6667 16.667 23.6819 16.667 20V18.6667ZM19.5931 17.3333H27.0742C26.4959 15.8564 25.0191 14.6667 23.3337 14.6667C21.6482 14.6667 20.1714 15.8564 19.5931 17.3333Z" fill="#053EFF"/>
</svg>
