<svg width="32" height="32" viewBox="0 0 32 32" fill="none" xmlns="http://www.w3.org/2000/svg">
<path d="M9.33301 16V28M22.6663 16V28" stroke="#282828" stroke-width="1.5" stroke-linecap="round" stroke-linejoin="round"/>
<path d="M4 16H28" stroke="#282828" stroke-width="1.5" stroke-linecap="round" stroke-linejoin="round"/>
<path d="M3.33301 18.3333C3.33301 13.4621 3.33301 11.0266 4.81699 9.51328C6.30099 8 8.68945 8 13.4663 8H18.533C23.3099 8 25.6983 8 27.1823 9.51328C28.6663 11.0266 28.6663 13.4621 28.6663 18.3333C28.6663 23.2045 28.6663 25.6401 27.1823 27.1533C25.6983 28.6667 23.3099 28.6667 18.533 28.6667H13.4663C8.68945 28.6667 6.30099 28.6667 4.81699 27.1533C3.33301 25.6401 3.33301 23.2045 3.33301 18.3333Z" stroke="#282828" stroke-width="1.5" stroke-linecap="round"/>
<path d="M22 7.99967L21.8676 7.58759C21.2075 5.53419 20.8775 4.5075 20.0919 3.92025C19.3061 3.33301 18.2627 3.33301 16.1755 3.33301H15.8245C13.7373 3.33301 12.6938 3.33301 11.9081 3.92025C11.1225 4.5075 10.7925 5.53419 10.1325 7.58759L10 7.99967" stroke="#282828" stroke-width="1.5"/>
</svg>
