<svg width="32" height="32" viewBox="0 0 32 32" fill="none" xmlns="http://www.w3.org/2000/svg">
<path fill-rule="evenodd" clip-rule="evenodd" d="M21.173 27.8937C21.213 28.1071 21.0929 28.3337 20.8929 28.4137C19.3863 29.0137 17.733 29.3337 16.0263 29.3337C13.0797 29.3337 10.3596 28.3871 8.15963 26.7604C7.97296 26.6271 7.91967 26.3604 8.03967 26.1604C8.77301 24.8537 11.6396 20.6537 17.9729 18.3071C18.2129 18.2137 18.4796 18.3337 18.5596 18.5737C20.1463 22.827 20.893 26.4271 21.173 27.8937Z" fill="#EA4C89"/>
<path fill-rule="evenodd" clip-rule="evenodd" d="M29.0935 18.5197C28.4802 21.7997 26.6402 24.6531 24.0668 26.5997C23.7868 26.8131 23.3868 26.653 23.3202 26.3197C23.0402 24.8797 22.3602 21.773 21.0535 18.0797C20.9602 17.7997 21.1469 17.493 21.4402 17.453C24.7602 17.053 27.6669 17.693 28.7602 17.9864C28.9869 18.0664 29.1335 18.2931 29.0935 18.5197Z" fill="#EA4C89"/>
<path fill-rule="evenodd" clip-rule="evenodd" d="M28.7867 15.7596C27.4267 15.5196 23.96 15.0129 20.4133 15.3995C20.2 15.4262 20.0133 15.3062 19.92 15.1062C19.8666 14.9862 19.8266 14.8662 19.7733 14.7462C19.56 14.2529 19.3333 13.7462 19.1066 13.2529C18.9866 13.0129 19.1066 12.7195 19.3466 12.6129C23.08 10.9995 25.1599 8.91953 25.9733 7.98619C26.1733 7.75953 26.52 7.77289 26.7067 8.01289C28.24 10.0529 29.1866 12.5462 29.3333 15.2395C29.3466 15.5729 29.08 15.8129 28.7867 15.7596Z" fill="#EA4C89"/>
<path fill-rule="evenodd" clip-rule="evenodd" d="M24.5866 6.38635C23.8933 7.22635 21.9466 9.22633 18.2533 10.693C18.0399 10.7863 17.7866 10.693 17.6666 10.4797C15.9599 7.38632 14.1466 4.78633 13.3066 3.613C13.1066 3.333 13.2666 2.93301 13.6 2.87968C14.3733 2.74635 15.1866 2.67969 16.0133 2.67969C19.24 2.67969 22.2133 3.82634 24.52 5.74634C24.72 5.893 24.7466 6.18635 24.5866 6.38635Z" fill="#EA4C89"/>
<path fill-rule="evenodd" clip-rule="evenodd" d="M14.6934 11.7862C9.64003 13.0529 5.1733 13.2262 3.54663 13.2529C3.23997 13.2529 3.01335 12.9596 3.09335 12.6662C4.05335 8.93289 6.61332 5.8129 9.98666 4.0929C10.1867 3.98624 10.44 4.05288 10.5733 4.23955C11.2667 5.19955 13.1467 7.90624 14.9867 11.0929C15.1333 11.3596 15 11.7062 14.6934 11.7862Z" fill="#EA4C89"/>
<path fill-rule="evenodd" clip-rule="evenodd" d="M17.2263 15.4662C17.3463 15.7195 17.1997 16.0262 16.933 16.1195C11.0264 18.0262 7.49302 22.7595 6.42635 24.3862C6.25302 24.6528 5.87969 24.6662 5.67969 24.4262C3.81302 22.1328 2.67969 19.5061 2.67969 16.3195V16.0795C2.67969 15.8128 2.893 15.5995 3.15967 15.6128C4.83967 15.6795 10.3197 15.4528 16.013 13.8128C16.2264 13.7461 16.4663 13.8528 16.5597 14.0528C16.7863 14.5195 17.013 14.9862 17.2263 15.4662Z" fill="#EA4C89"/>
</svg>
