<svg width="32" height="32" viewBox="0 0 32 32" fill="none" xmlns="http://www.w3.org/2000/svg">
<path d="M16.0001 2.66699H11.5601C9.10673 2.66699 7.12012 4.65364 7.12012 7.10697C7.12012 9.56031 9.10673 11.547 11.5601 11.547H16.0001V2.66699Z" fill="#FA5053"/>
<path d="M16.0001 11.5596H11.5601C9.10673 11.5596 7.12012 13.5462 7.12012 15.9996C7.12012 18.4529 9.10673 20.4395 11.5601 20.4395H16.0001V11.5596Z" fill="#7F00FF"/>
<path d="M16.0001 20.4404H11.5601C9.10673 20.4404 7.12012 22.4271 7.12012 24.8805C7.12012 27.3338 9.10673 29.3204 11.5601 29.3204C14.0134 29.3204 16.0001 27.3338 16.0001 24.8805V20.4404Z" fill="#0BDA51"/>
<path d="M16 2.66699H20.44C22.8934 2.66699 24.88 4.65364 24.88 7.10697C24.88 9.56031 22.8934 11.547 20.44 11.547H16V2.66699Z" fill="#F88379"/>
<path d="M20.44 11.5596C22.8934 11.5596 24.88 13.5462 24.88 15.9996C24.88 18.4529 22.8934 20.4395 20.44 20.4395C17.9867 20.4395 16 18.4529 16 15.9996C16 13.5462 17.9867 11.5596 20.44 11.5596Z" fill="#007BA7"/>
</svg>
