<svg width="32" height="32" viewBox="0 0 32 32" fill="none" xmlns="http://www.w3.org/2000/svg">
<path d="M6.66634 12H5.99967C4.74259 12 4.11406 12 3.72353 12.3905C3.33301 12.7811 3.33301 13.4096 3.33301 14.6667V26C3.33301 27.2571 3.33301 27.8856 3.72353 28.2761C4.11406 28.6667 4.74259 28.6667 5.99967 28.6667H6.66634C7.92342 28.6667 8.55195 28.6667 8.94249 28.2761C9.33301 27.8856 9.33301 27.2571 9.33301 26V14.6667C9.33301 13.4096 9.33301 12.7811 8.94249 12.3905C8.55195 12 7.92342 12 6.66634 12Z" fill="#0077B5"/>
<path d="M9.33301 6.33301C9.33301 7.98986 7.98986 9.33301 6.33301 9.33301C4.67615 9.33301 3.33301 7.98986 3.33301 6.33301C3.33301 4.67615 4.67615 3.33301 6.33301 3.33301C7.98986 3.33301 9.33301 4.67615 9.33301 6.33301Z" fill="#0077B5"/>
<path d="M15.768 12H14.6667C13.4096 12 12.7811 12 12.3905 12.3905C12 12.7811 12 13.4096 12 14.6667V26C12 27.2571 12 27.8856 12.3905 28.2761C12.7811 28.6667 13.4096 28.6667 14.6667 28.6667H15.3333C16.5904 28.6667 17.2189 28.6667 17.6095 28.2761C18 27.8856 18 27.2571 18 26L18.0001 21.3335C18.0001 19.1244 18.7041 17.3335 20.7839 17.3335C21.8236 17.3335 22.6667 18.2289 22.6667 19.3335V25.3335C22.6667 26.5905 22.6667 27.2191 23.0572 27.6096C23.4476 28.0001 24.0763 28.0001 25.3333 28.0001H25.9983C27.2551 28.0001 27.8835 28.0001 28.274 27.6097C28.6645 27.2193 28.6647 26.5909 28.6649 25.3341L28.6668 18.0003C28.6668 14.6867 25.5152 12.0003 22.3957 12.0003C20.6199 12.0003 19.0356 12.8708 18.0001 14.232C18 13.3919 18 12.9719 17.8176 12.66C17.702 12.4625 17.5375 12.298 17.34 12.1825C17.0281 12 16.6081 12 15.768 12Z" fill="#0077B5"/>
</svg>
